<svg xmlns="http://www.w3.org/2000/svg" viewBox="0 0 79.96 15.85"><title>Asset 13</title><g id="Layer_2" data-name="Layer 2"><g id="Layer_1-2" data-name="Layer 1"><path d="M3.86,18.27H2.09V3.05h8.48V4.62H3.86v5.57h6.31v1.57H3.86Z" transform="translate(-2.09 -2.62)" style="fill:#418765"/><path d="M11.81,3.77a1.15,1.15,0,0,1,.29-.87,1,1,0,0,1,.73-.28,1,1,0,0,1,.72.28,1.15,1.15,0,0,1,.3.87,1.15,1.15,0,0,1-.3.87,1.08,1.08,0,0,1-1.45,0A1.18,1.18,0,0,1,11.81,3.77Zm1.88,14.5H12V6.86h1.73Z" transform="translate(-2.09 -2.62)" style="fill:#418765"/><path d="M24.28,18.27V10.89a3,3,0,0,0-.63-2.08,2.58,2.58,0,0,0-2-.69,3.26,3.26,0,0,0-2.62,1,4.84,4.84,0,0,0-.84,3.19v6H16.48V6.86h1.4l.28,1.56h.09a3.56,3.56,0,0,1,1.48-1.31,5,5,0,0,1,2.14-.46,4.3,4.3,0,0,1,3.1,1,4.23,4.23,0,0,1,1,3.17v7.45Z" transform="translate(-2.09 -2.62)" style="fill:#418765"/><path d="M35.7,18.27l-.34-1.63h-.09a4.59,4.59,0,0,1-1.7,1.45,5,5,0,0,1-2.11.38,3.81,3.81,0,0,1-2.66-.87,3.16,3.16,0,0,1-1-2.49c0-2.3,1.85-3.51,5.53-3.62l1.94-.06v-.71a2.91,2.91,0,0,0-.58-2,2.37,2.37,0,0,0-1.85-.64A7.57,7.57,0,0,0,29.64,9l-.53-1.32A8.37,8.37,0,0,1,31,6.93a8.17,8.17,0,0,1,2-.26,4.33,4.33,0,0,1,3,.91,3.79,3.79,0,0,1,1,2.9v7.79Zm-3.9-1.22a3.5,3.5,0,0,0,2.53-.89,3.24,3.24,0,0,0,.92-2.47v-1l-1.72.07a6.23,6.23,0,0,0-3,.64,1.94,1.94,0,0,0-.92,1.76,1.78,1.78,0,0,0,.57,1.43A2.35,2.35,0,0,0,31.8,17.05Z" transform="translate(-2.09 -2.62)" style="fill:#418765"/><path d="M43.35,17.05a5.18,5.18,0,0,0,.89-.07,4.48,4.48,0,0,0,.67-.14v1.32a3.07,3.07,0,0,1-.82.23,6.15,6.15,0,0,1-1,.08c-2.2,0-3.31-1.16-3.31-3.48V8.2H38.16V7.37l1.63-.72.73-2.43h1V6.86h3.31V8.2H41.52v6.72A2.3,2.3,0,0,0,42,16.5,1.69,1.69,0,0,0,43.35,17.05Z" transform="translate(-2.09 -2.62)" style="fill:#418765"/><path d="M51.52,6.65a6.38,6.38,0,0,1,1.37.13l-.24,1.6a5.55,5.55,0,0,0-1.25-.16A3.06,3.06,0,0,0,49,9.35a4.12,4.12,0,0,0-1,2.8v6.12H46.32V6.86h1.42L47.94,9H48a5.05,5.05,0,0,1,1.53-1.72A3.43,3.43,0,0,1,51.52,6.65Z" transform="translate(-2.09 -2.62)" style="fill:#418765"/><path d="M54,3.77a1.15,1.15,0,0,1,.29-.87A1,1,0,0,1,55,2.62a1,1,0,0,1,.72.28,1.15,1.15,0,0,1,.3.87,1.15,1.15,0,0,1-.3.87,1.08,1.08,0,0,1-1.45,0A1.18,1.18,0,0,1,54,3.77Zm1.87,14.5H54.15V6.86h1.72Z" transform="translate(-2.09 -2.62)" style="fill:#418765"/><path d="M63.22,18.47A4.84,4.84,0,0,1,59.39,17,6.24,6.24,0,0,1,58,12.64a6.48,6.48,0,0,1,1.38-4.43,5,5,0,0,1,3.93-1.56A7.63,7.63,0,0,1,65,6.83a5.45,5.45,0,0,1,1.29.41l-.53,1.47a8.35,8.35,0,0,0-1.25-.38,5.6,5.6,0,0,0-1.19-.15q-3.48,0-3.48,4.43a5.24,5.24,0,0,0,.85,3.23A2.94,2.94,0,0,0,63.18,17a7.72,7.72,0,0,0,2.93-.62v1.53A6.22,6.22,0,0,1,63.22,18.47Z" transform="translate(-2.09 -2.62)" style="fill:#418765"/><rect x="68.57" y="2.01" width="11.39" height="2.54" style="fill:#099e49"/><rect x="68.57" y="5.7" width="7.74" height="2.54" style="fill:#71c386"/><rect x="68.57" y="9.4" width="4.95" height="2.54" style="fill:#e57e26"/><rect x="68.57" y="13.1" width="3.03" height="2.54" style="fill:#f29c22"/><rect x="69.77" y="4.63" width="0.46" height="13.64" transform="translate(137.92 20.27) rotate(180)" style="fill:#418765"/></g></g></svg>