<svg xmlns="http://www.w3.org/2000/svg" viewBox="0 0 312.14 52.65"><title>finatric_v2_logo</title><g id="Layer_2" data-name="Layer 2"><g id="Layer_1-2" data-name="Layer 1"><path d="M12.83,60.67H7V10.13H35.13v5.22H12.83v18.5h21v5.22h-21Z" transform="translate(-6.95 -8.71)" style="fill:#418765"/><path d="M39.24,12.52a3.79,3.79,0,0,1,1-2.89,3.56,3.56,0,0,1,4.8,0,3.72,3.72,0,0,1,1,2.87,3.78,3.78,0,0,1-1,2.88,3.31,3.31,0,0,1-2.38,1,3.28,3.28,0,0,1-2.42-1A3.84,3.84,0,0,1,39.24,12.52Zm6.22,48.15H39.72V22.78h5.74Z" transform="translate(-6.95 -8.71)" style="fill:#418765"/><path d="M80.66,60.67V36.16c0-3.09-.71-5.39-2.11-6.91S74.94,27,71.94,27Q66,27,63.23,30.18T60.47,40.79V60.67H54.73V22.78H59.4L60.33,28h.28a11.69,11.69,0,0,1,4.94-4.34,16,16,0,0,1,7.09-1.54q6.84,0,10.3,3.3T86.4,36V60.67Z" transform="translate(-6.95 -8.71)" style="fill:#418765"/><path d="M118.58,60.67l-1.14-5.39h-.27a16,16,0,0,1-5.66,4.82,17.24,17.24,0,0,1-7,1.26c-3.76,0-6.7-1-8.84-2.9s-3.19-4.69-3.19-8.26q0-11.48,18.35-12l6.43-.21V35.61c0-3-.63-5.17-1.91-6.59S112,26.9,109.18,26.9a25,25,0,0,0-10.72,2.9L96.7,25.41A27.32,27.32,0,0,1,102.84,23a26.81,26.81,0,0,1,6.69-.86q6.77,0,10,3t3.27,9.64V60.67Zm-13-4q5.35,0,8.42-2.94t3.06-8.23V42l-5.74.24q-6.85.24-9.87,2.13a6.4,6.4,0,0,0-3,5.86A5.89,5.89,0,0,0,100.35,55,7.77,7.77,0,0,0,105.62,56.63Z" transform="translate(-6.95 -8.71)" style="fill:#418765"/><path d="M144,56.63a18.6,18.6,0,0,0,2.93-.23,19.25,19.25,0,0,0,2.25-.46v4.39a10.26,10.26,0,0,1-2.75.74,20.12,20.12,0,0,1-3.26.29q-11,0-11-11.58V27.24h-5.43V24.48l5.43-2.39L134.59,14h3.32v8.78h11v4.46h-11v22.3a7.67,7.67,0,0,0,1.63,5.26A5.64,5.64,0,0,0,144,56.63Z" transform="translate(-6.95 -8.71)" style="fill:#418765"/><path d="M171.13,22.09a22.1,22.1,0,0,1,4.53.42l-.79,5.32a19.31,19.31,0,0,0-4.15-.52,10.11,10.11,0,0,0-7.87,3.74,13.62,13.62,0,0,0-3.26,9.3V60.67h-5.74V22.78h4.73l.66,7h.28a16.5,16.5,0,0,1,5.08-5.7A11.41,11.41,0,0,1,171.13,22.09Z" transform="translate(-6.95 -8.71)" style="fill:#418765"/><path d="M179.36,12.52a3.83,3.83,0,0,1,1-2.89,3.57,3.57,0,0,1,4.81,0,3.76,3.76,0,0,1,1,2.87,3.81,3.81,0,0,1-1,2.88,3.34,3.34,0,0,1-2.39,1,3.29,3.29,0,0,1-2.42-1A3.88,3.88,0,0,1,179.36,12.52Zm6.23,48.15h-5.74V22.78h5.74Z" transform="translate(-6.95 -8.71)" style="fill:#418765"/><path d="M210,61.36q-8.24,0-12.74-5.06T192.74,42q0-9.51,4.59-14.69t13-5.19a26,26,0,0,1,5.46.59,18,18,0,0,1,4.29,1.38l-1.77,4.88a27.33,27.33,0,0,0-4.15-1.27,18.77,18.77,0,0,0-4-.5q-11.55,0-11.55,14.73,0,7,2.82,10.72t8.35,3.73a25.54,25.54,0,0,0,9.71-2v5.08A20.61,20.61,0,0,1,210,61.36Z" transform="translate(-6.95 -8.71)" style="fill:#418765"/><rect x="227.74" y="6.66" width="84.4" height="8.45" style="fill:#099e49"/><rect x="227.74" y="18.95" width="65.78" height="8.45" style="fill:#71c386"/><rect x="227.74" y="31.23" width="47.87" height="8.45" style="fill:#e57e26"/><rect x="227.74" y="43.52" width="34.91" height="8.45" style="fill:#f29c22"/><rect x="226.34" y="6.66" width="0.8" height="45.3" style="fill:#418765"/></g></g></svg>