<svg id="Layer_1" data-name="Layer 1" xmlns="http://www.w3.org/2000/svg" viewBox="0 0 215.56 103.57"><title>Fnatric</title><path d="M248.45,137.64h-5.87V87.09h28.17v5.22h-22.3v18.5H269.4V116H248.45Z" transform="translate(-242.58 -85.68)" style="fill:#418765"/><path d="M274.87,89.48a3.84,3.84,0,0,1,1-2.89,3.6,3.6,0,0,1,4.81,0,3.73,3.73,0,0,1,1,2.87,3.81,3.81,0,0,1-1,2.89,3.52,3.52,0,0,1-4.81,0A3.92,3.92,0,0,1,274.87,89.48Zm6.22,48.16h-5.74V99.75h5.74Z" transform="translate(-242.58 -85.68)" style="fill:#418765"/><path d="M316.28,137.64V113.13q0-4.63-2.11-6.92t-6.6-2.28c-4,0-6.87,1.07-8.71,3.22s-2.77,5.68-2.77,10.61v19.88h-5.73V99.75H295l.94,5.18h.27a11.84,11.84,0,0,1,4.95-4.34,16.12,16.12,0,0,1,7.08-1.53q6.86,0,10.31,3.3T322,112.92v24.72Z" transform="translate(-242.58 -85.68)" style="fill:#418765"/><path d="M354.21,137.64l-1.14-5.4h-.28a15.88,15.88,0,0,1-5.65,4.83,17.25,17.25,0,0,1-7,1.26c-3.75,0-6.7-1-8.83-2.9s-3.2-4.69-3.2-8.27q0-11.47,18.36-12l6.43-.21v-2.35c0-3-.64-5.17-1.92-6.58s-3.32-2.13-6.13-2.13a25,25,0,0,0-10.72,2.91l-1.76-4.4a27.23,27.23,0,0,1,6.13-2.38,26.47,26.47,0,0,1,6.69-.86q6.78,0,10.05,3t3.26,9.65v25.86Zm-13-4q5.36,0,8.41-2.94c2-2,3.06-4.7,3.06-8.22V119l-5.74.25q-6.84.24-9.87,2.12a6.43,6.43,0,0,0-3,5.86A5.94,5.94,0,0,0,336,132,7.86,7.86,0,0,0,341.25,133.59Z" transform="translate(-242.58 -85.68)" style="fill:#418765"/><path d="M379.62,133.59a18.65,18.65,0,0,0,2.94-.22,19.85,19.85,0,0,0,2.25-.47v4.39a10.59,10.59,0,0,1-2.75.75,21.33,21.33,0,0,1-3.27.29q-11,0-11-11.58V104.21h-5.43v-2.77l5.43-2.38L370.22,91h3.32v8.78h11v4.46h-11v22.3a7.67,7.67,0,0,0,1.62,5.25A5.67,5.67,0,0,0,379.62,133.59Z" transform="translate(-242.58 -85.68)" style="fill:#418765"/><path d="M406.76,99.06a22.28,22.28,0,0,1,4.53.41l-.79,5.32a20,20,0,0,0-4.15-.51,10.1,10.1,0,0,0-7.87,3.73,13.61,13.61,0,0,0-3.27,9.3v20.33h-5.73V99.75h4.73l.66,7h.27a16.65,16.65,0,0,1,5.09-5.71A11.4,11.4,0,0,1,406.76,99.06Z" transform="translate(-242.58 -85.68)" style="fill:#418765"/><path d="M415,89.48a3.81,3.81,0,0,1,1-2.89,3.59,3.59,0,0,1,4.8,0,3.74,3.74,0,0,1,1,2.87,3.82,3.82,0,0,1-1,2.89,3.36,3.36,0,0,1-2.38.95,3.32,3.32,0,0,1-2.42-.95A3.88,3.88,0,0,1,415,89.48Zm6.22,48.16h-5.74V99.75h5.74Z" transform="translate(-242.58 -85.68)" style="fill:#418765"/><path d="M445.62,138.33q-8.22,0-12.74-5.07t-4.51-14.33q0-9.5,4.58-14.69T446,99.06a26,26,0,0,1,5.46.58,18.27,18.27,0,0,1,4.29,1.39L454,105.9a26.25,26.25,0,0,0-4.15-1.26,18.78,18.78,0,0,0-4-.5q-11.53,0-11.54,14.73,0,7,2.81,10.71t8.35,3.74a25.55,25.55,0,0,0,9.72-2v5.08A20.78,20.78,0,0,1,445.62,138.33Z" transform="translate(-242.58 -85.68)" style="fill:#418765"/><rect x="2.13" y="58.27" width="213.43" height="8.45" style="fill:#099e49"/><rect x="2.13" y="70.56" width="166.34" height="8.45" style="fill:#71c386"/><rect x="2.13" y="82.84" width="121.05" height="8.45" style="fill:#e57e26"/><rect x="2.13" y="95.12" width="88.29" height="8.45" style="fill:#f29c22"/><rect x="0.1" y="58.27" width="2.03" height="45.3" style="fill:#418765"/></svg>